<?xml version="1.0" encoding="UTF-8" standalone="no"?>
<!-- Created with Inkscape (http://www.inkscape.org/) -->

<svg
   xmlns:dc="http://purl.org/dc/elements/1.1/"
   xmlns:cc="http://creativecommons.org/ns#"
   xmlns:rdf="http://www.w3.org/1999/02/22-rdf-syntax-ns#"
   xmlns:svg="http://www.w3.org/2000/svg"
   xmlns="http://www.w3.org/2000/svg"
   version="1.1"
   width="744.09448"
   height="1052.3622"
   id="svg2">
  <defs
     id="defs4" />
  <metadata
     id="metadata7">
    <rdf:RDF>
      <cc:Work
         rdf:about="">
        <dc:format>image/svg+xml</dc:format>
        <dc:type
           rdf:resource="http://purl.org/dc/dcmitype/StillImage" />
        <dc:title></dc:title>
      </cc:Work>
    </rdf:RDF>
  </metadata>
  <g
     id="layer1">
    <path
       d="m 370,122.375 c -115.15873,0 -181.40941,49.16587 -209.0625,101.21875 -24.36682,45.86696 -21.89194,89.31597 -20.9375,99.5 l 0,109.28125 4.53125,0 c -24.66895,0 -44.53125,20.07 -44.53125,45 l 0,447.125 c 0,24.93 19.8623,45 44.53125,45 l 450.9375,0 C 620.1377,969.5 640,949.43 640,924.5 l 0,-447.125 c 0,-24.93 -19.8623,-45 -44.53125,-45 l 4.53125,0 0,-120 -0.0625,0 c 0.31542,-6.85108 1.3173,-50.68992 -25.625,-95.59375 C 545.08702,168.07219 480,122.375 370,122.375 z m 0,80 c 90,0 119.91293,29.27156 135.6875,55.5625 15.77457,26.29094 14.40625,51.75 14.40625,51.75 l -0.0937,1.34375 0,1.34375 0,120 -300,0 0,-110 0,-2.5 -0.3125,-2.46875 c 0,0 -2.97191,-28.33413 11.875,-56.28125 14.84691,-27.94712 43.59623,-58.75 138.4375,-58.75 z m 3.125,390 c 37.57363,0 68.03125,30.45762 68.03125,68.03125 0,20.08471 -8.69025,38.10905 -22.53125,50.5625 l 22.53125,112.71875 -136.0625,0 22.53125,-112.71875 c -13.841,-12.45345 -22.53125,-30.47779 -22.53125,-50.5625 0,-37.57363 30.45762,-68.03125 68.03125,-68.03125 z"
       id="rect2987"
       style="fill:#000000;fill-opacity:1;fill-rule:evenodd;stroke:none" />
  </g>
</svg>
